<?xml version="1.0" encoding="UTF-8"?>
<svg width="192px" height="192px" viewBox="0 0 192 192" version="1.1" xmlns="http://www.w3.org/2000/svg" xmlns:xlink="http://www.w3.org/1999/xlink">
    <title>Environmental Monitoring Icon</title>
    <defs>
        <linearGradient x1="50%" y1="0%" x2="50%" y2="100%" id="linearGradient-1">
            <stop stop-color="#3498DB" offset="0%"></stop>
            <stop stop-color="#2980B9" offset="100%"></stop>
        </linearGradient>
        <circle id="path-2" cx="96" cy="96" r="88"></circle>
        <filter x="-8.0%" y="-8.0%" width="115.9%" height="115.9%" filterUnits="objectBoundingBox" id="filter-3">
            <feOffset dx="0" dy="0" in="SourceAlpha" result="shadowOffsetOuter1"></feOffset>
            <feGaussianBlur stdDeviation="5" in="shadowOffsetOuter1" result="shadowBlurOuter1"></feGaussianBlur>
            <feColorMatrix values="0 0 0 0 0   0 0 0 0 0   0 0 0 0 0  0 0 0 0.2 0" type="matrix" in="shadowBlurOuter1"></feColorMatrix>
        </filter>
    </defs>
    <g id="Environmental-Icon" stroke="none" stroke-width="1" fill="none" fill-rule="evenodd">
        <g id="Circle">
            <use fill="black" fill-opacity="1" filter="url(#filter-3)" xlink:href="#path-2"></use>
            <use fill="url(#linearGradient-1)" fill-rule="evenodd" xlink:href="#path-2"></use>
        </g>
        <g id="Icons" transform="translate(40.000000, 48.000000)" fill="#FFFFFF">
            <!-- Cloud/Environment Icon -->
            <path d="M90.1,48.3 C88.4,37.8 79.1,30 68,30 C61.7,30 56,32.6 52,36.8 C49.5,35.1 46.5,34 43.2,34 C35.8,34 29.8,40 29.8,47.5 C29.8,48.2 29.9,48.9 30,49.5 C24.4,52.3 20.5,58.3 20.5,65.2 C20.5,75.1 28.5,83 38.4,83 L87.7,83 C97.6,83 105.6,75.1 105.6,65.2 C105.5,56.8 98.9,49.9 90.1,48.3 Z" fill-opacity="0.9"></path>
            
            <!-- Leaf icon for environmental monitoring -->
            <path d="M78.5,61 C77.9,59.9 77.1,59 76.1,58.3 C73.3,56.3 69.6,56.4 67,58.7 L63,62.5 L59,58.7 C56.3,56.4 52.7,56.3 49.9,58.3 C48.9,59 48.1,59.9 47.5,61 C46.5,62.8 46.3,64.9 47,66.8 C47.7,68.8 49.1,70.3 51,71.1 C51.8,71.5 52.7,71.6 53.5,71.6 C55.1,71.6 56.7,71 57.9,69.8 L63,65.1 L68.1,69.8 C69.3,71 70.9,71.6 72.5,71.6 C73.3,71.6 74.2,71.5 75,71.1 C76.9,70.3 78.3,68.8 79,66.8 C79.7,64.9 79.5,62.8 78.5,61 Z" fill-opacity="0.7"></path>
            
            <!-- Circular gauge element -->
            <circle cx="40" cy="30" r="20" fill-opacity="0.7"></circle>
            <circle cx="40" cy="30" r="15" fill="#3498DB"></circle>
            <rect x="38" y="15" width="4" height="15" rx="2" fill="#FFFFFF"></rect>
        </g>
    </g>
</svg>